<svg width="40" height="41" viewBox="0 0 40 41" fill="none" xmlns="http://www.w3.org/2000/svg">
<mask id="mask0_44_7" style="mask-type:luminance" maskUnits="userSpaceOnUse" x="0" y="0" width="40" height="41">
<path d="M0 0H40V41H0V0Z" fill="white"/>
</mask>
<g mask="url(#mask0_44_7)">
<path fill-rule="evenodd" clip-rule="evenodd" d="M13.715 0.516011C11.458 0.516011 9.29501 1.41201 7.69901 3.00801L6.7082e-06 10.707V14.231C6.7082e-06 16.721 1.07001 18.961 2.77401 20.516C1.89888 21.3124 1.2 22.2831 0.722271 23.3657C0.244541 24.4482 -0.00148113 25.6187 6.7082e-06 26.802V30.326L7.69901 38.024C8.51218 38.8373 9.48182 39.4773 10.5493 39.9052C11.6168 40.3332 12.76 40.5403 13.9098 40.5139C15.0596 40.4875 16.1921 40.2283 17.2389 39.7519C18.2857 39.2755 19.225 38.5917 20 37.742C20.7751 38.5916 21.7145 39.2752 22.7612 39.7516C23.808 40.2279 24.9405 40.4871 26.0902 40.5135C27.24 40.5398 28.3831 40.3328 29.4506 39.9049C30.5181 39.477 31.4878 38.8372 32.301 38.024L40 30.326V26.802C40 24.312 38.93 22.072 37.226 20.516C38.101 19.7197 38.7998 18.7492 39.2775 17.6668C39.7553 16.5844 40.0014 15.4141 40 14.231V10.707L32.301 3.00701C31.4877 2.1939 30.518 1.55412 29.4504 1.12632C28.3829 0.69853 27.2397 0.491608 26.09 0.518059C24.9402 0.54451 23.8078 0.803787 22.7611 1.28022C21.7143 1.75665 20.7751 2.44036 20 3.29001C19.2037 2.41501 18.2332 1.7162 17.1508 1.23848C16.0684 0.760752 14.8981 0.514662 13.715 0.516011ZM25.759 20.516C25.663 20.4282 25.5689 20.3382 25.477 20.246L20 14.77L14.523 20.247C14.4311 20.3392 14.3371 20.4292 14.241 20.517C14.337 20.604 14.431 20.694 14.523 20.786L20 26.262L25.477 20.786C25.569 20.693 25.663 20.604 25.759 20.516ZM22.222 30.326V32.008C22.2218 32.8117 22.4599 33.5974 22.9063 34.2657C23.3527 34.934 23.9872 35.4549 24.7297 35.7626C25.4722 36.0702 26.2892 36.1508 27.0774 35.994C27.8657 35.8373 28.5897 35.4503 29.158 34.882L35.556 28.485V26.802C35.5564 25.9981 35.3183 25.2122 34.8719 24.5437C34.4255 23.8751 33.7908 23.354 33.0481 23.0464C32.3055 22.7387 31.4882 22.6582 30.6998 22.8151C29.9114 22.9721 29.1872 23.3594 28.619 23.928L22.222 30.326ZM17.778 30.326L11.381 23.928C10.8128 23.3594 10.0888 22.9722 9.30047 22.8152C8.51215 22.6582 7.69498 22.7386 6.95235 23.0462C6.20972 23.3537 5.57501 23.8747 5.12851 24.543C4.68201 25.2114 4.4438 25.9972 4.44401 26.801V28.485L10.841 34.882C11.4092 35.4506 12.1332 35.8379 12.9215 35.9948C13.7099 36.1518 14.527 36.0714 15.2697 35.7639C16.0123 35.4563 16.647 34.9354 17.0935 34.267C17.54 33.5986 17.7782 32.8128 17.778 32.009V30.326ZM17.778 9.02401V10.707L11.381 17.104C10.8128 17.6726 10.0888 18.0599 9.30047 18.2168C8.51215 18.3738 7.69498 18.2934 6.95235 17.9859C6.20972 17.6783 5.57501 17.1574 5.12851 16.489C4.68201 15.8206 4.4438 15.0348 4.44401 14.231V12.548L10.841 6.15101C11.4092 5.58244 12.1332 5.19516 12.9215 5.03819C13.7099 4.88122 14.527 4.9616 15.2697 5.26916C16.0123 5.57673 16.647 6.09765 17.0935 6.76603C17.54 7.43441 17.7782 8.22021 17.778 9.02401ZM28.619 17.104L22.222 10.707V9.02401C22.222 8.22042 22.4603 7.43487 22.9067 6.7667C23.3532 6.09854 23.9877 5.57776 24.7302 5.27024C25.4726 4.96272 26.2895 4.88226 27.0777 5.03903C27.8658 5.19581 28.5898 5.58278 29.158 6.15101L35.556 12.548V14.231C35.5562 15.0348 35.318 15.8206 34.8715 16.489C34.425 17.1574 33.7903 17.6783 33.0477 17.9859C32.305 18.2934 31.4879 18.3738 30.6995 18.2168C29.9112 18.0599 29.1872 17.6726 28.619 17.104Z" fill="#C7231A"/>
</g>
</svg>
